<?xml version="1.0" encoding="UTF-8"?>
<svg xmlns="http://www.w3.org/2000/svg" xmlns:xlink="http://www.w3.org/1999/xlink" width="2400" height="2000" viewBox="0 0 2400 2000">
<rect x="-240" y="-200" width="2880" height="2400" fill="rgb(100%, 100%, 100%)" fill-opacity="1"/>
<path fill-rule="evenodd" fill="rgb(0%, 0%, 0%)" fill-opacity="1" d="M 390.515625 1228.78125 C 390.515625 1228.78125 410.058594 995.53125 978.492188 837.539062 C 978.492188 837.539062 1052.601562 501.210938 1123.859375 507.320312 C 1195.109375 513.429688 1252.121094 800.488281 1305.050781 833.070312 C 1357.988281 865.640625 1531.039062 877.859375 1555.46875 839.171875 C 1579.898438 800.488281 1606.371094 796.421875 1624.691406 859.53125 C 1624.691406 859.53125 1683.738281 875.820312 1720.378906 855.460938 C 1720.378906 855.460938 1728.53125 704.800781 1665.410156 682.410156 C 1665.410156 682.410156 1614.519531 672.230469 1596.191406 641.691406 C 1596.191406 641.691406 1608.410156 651.871094 1685.769531 655.941406 C 1763.140625 660.011719 1789.601562 806.601562 1852.71875 888.039062 C 1915.828125 969.46875 1928.050781 1044.804688 2009.488281 1057.019531 C 2009.488281 1057.019531 1921.941406 1146.597656 1777.390625 969.46875 C 1777.390625 969.46875 1695.949219 977.621094 1647.089844 1061.089844 L 1671.519531 1120.132812 C 1671.519531 1120.132812 1592.121094 1095.699219 1494.390625 1132.347656 C 1494.390625 1132.347656 1419.070312 1168.992188 1382.421875 1191.390625 C 1382.421875 1191.390625 1341.699219 1203.605469 1315.230469 1171.03125 C 1315.230469 1171.03125 1317.269531 1209.167969 1394.640625 1228.78125 C 1472 1248.394531 1533.078125 1375.914062 1626.730469 1476.417969 C 1626.730469 1476.417969 1636.910156 1509.738281 1545.289062 1481.234375 C 1453.679688 1452.730469 1209.371094 1304.109375 1142.179688 1267.460938 L 1164.578125 1304.109375 C 1164.578125 1304.109375 859.1875 1456.804688 645.414062 1399.796875 C 645.414062 1399.796875 568.046875 1369.257812 559.90625 1340.753906 C 559.90625 1340.753906 588.40625 1359.078125 637.269531 1371.292969 C 686.132812 1383.511719 656.230469 1360.304688 656.230469 1360.304688 L 665.234375 1371.03125 C 665.234375 1371.03125 681.25 1350.296875 687.085938 1356.96875 C 692.925781 1363.640625 704.597656 1376.148438 704.597656 1376.148438 L 714.605469 1362.804688 C 714.605469 1362.804688 727.949219 1371.144531 727.949219 1363.640625 C 727.949219 1356.132812 723.777344 1338.621094 735.453125 1340.289062 C 747.128906 1341.957031 758.804688 1347.796875 758.804688 1347.796875 L 773.65625 1331.949219 C 773.65625 1331.949219 777.046875 1330.28125 785.019531 1331.949219 C 792.992188 1333.617188 761.414062 1304.429688 796.382812 1316.941406 C 831.355469 1329.449219 825.105469 1300.261719 825.105469 1300.261719 L 813.84375 1273.574219 L 796.257812 1283.582031 C 796.257812 1283.582031 771.3125 1250.226562 766.308594 1271.074219 C 761.304688 1291.921875 757.96875 1303.597656 757.96875 1303.597656 C 757.96875 1303.597656 738.789062 1271.074219 733.785156 1290.253906 C 728.78125 1309.433594 732.953125 1315.273438 725.445312 1313.605469 C 717.941406 1311.9375 689.589844 1300.261719 689.589844 1300.261719 L 689.589844 1311.9375 C 689.589844 1311.9375 682.082031 1290.253906 675.410156 1305.265625 C 668.738281 1320.277344 683.75 1325.277344 666.238281 1321.941406 C 648.726562 1318.609375 628.710938 1301.09375 627.878906 1311.101562 C 627.046875 1321.109375 627.046875 1332.785156 627.046875 1332.785156 L 606.195312 1322.777344 L 589.519531 1326.113281 L 559.496094 1319.441406 C 559.496094 1319.441406 449.128906 1298.234375 390.515625 1228.78125 "/>
<path fill-rule="evenodd" fill="rgb(100%, 100%, 100%)" fill-opacity="1" d="M 995.199219 1050.75 C 995.199219 1050.75 1050.578125 1146.214844 1061.980469 1191.320312 C 1061.980469 1191.320312 1058.71875 1119.15625 995.199219 1050.75 "/>
<path fill-rule="evenodd" fill="rgb(100%, 100%, 100%)" fill-opacity="1" d="M 1028.589844 1039.347656 C 1028.589844 1039.347656 1083.96875 1134.8125 1095.371094 1179.917969 C 1095.371094 1179.917969 1092.109375 1107.753906 1028.589844 1039.347656 "/>
<path fill-rule="evenodd" fill="rgb(100%, 100%, 100%)" fill-opacity="1" d="M 1061.980469 1027.945312 C 1061.980469 1027.945312 1117.359375 1123.414062 1128.761719 1168.519531 C 1128.761719 1168.519531 1125.5 1096.351562 1061.980469 1027.945312 "/>
</svg>
